<svg width="400" height="414" viewBox="0 0 400 414" fill="none" xmlns="http://www.w3.org/2000/svg">
<path fill-rule="evenodd" clip-rule="evenodd" d="M0 208.201C0 86.1048 82.0046 0 201.367 0C316.173 0 400 85.6492 400 208.201C400 329.841 314.806 413.667 196.811 413.667C82.0045 413.667 0 330.296 0 208.201ZM46.6132 189.687C34.7867 125.583 66.894 58.9426 119.372 28.4103C119.372 28.4103 135.592 18.2159 157.679 16.3297C192.78 13.3322 229.682 26.966 256.385 47.6853C283.089 68.4047 317.802 116.303 332.385 165.193C338.483 185.637 343.656 234.493 342.181 257.713C336.804 342.321 302.733 390.818 251.042 393.844C217.812 395.788 196.929 384.254 176.661 345.643C160.695 315.225 149.28 303.239 118.446 284.509C74.0408 257.542 54.3328 231.527 46.6132 189.687Z" fill="url(#paint0_linear_1254_5576)"/>
<path fill-rule="evenodd" clip-rule="evenodd" d="M0 208.201C0 86.1048 82.0046 0 201.367 0C316.173 0 400 85.6492 400 208.201C400 329.841 314.806 413.667 196.811 413.667C82.0045 413.667 0 330.296 0 208.201ZM46.6132 189.687C34.7867 125.583 66.894 58.9426 119.372 28.4103C119.372 28.4103 135.592 18.2159 157.679 16.3297C192.78 13.3322 229.682 26.966 256.385 47.6853C283.089 68.4047 317.802 116.303 332.385 165.193C338.483 185.637 343.656 234.493 342.181 257.713C336.804 342.321 302.733 390.818 251.042 393.844C217.812 395.788 196.929 384.254 176.661 345.643C160.695 315.225 149.28 303.239 118.446 284.509C74.0408 257.542 54.3328 231.527 46.6132 189.687Z" fill="url(#paint1_linear_1254_5576)"/>
<path fill-rule="evenodd" clip-rule="evenodd" d="M0 208.201C0 86.1048 82.0046 0 201.367 0C316.173 0 400 85.6492 400 208.201C400 329.841 314.806 413.667 196.811 413.667C82.0045 413.667 0 330.296 0 208.201ZM46.6132 189.687C34.7867 125.583 66.894 58.9426 119.372 28.4103C119.372 28.4103 135.592 18.2159 157.679 16.3297C192.78 13.3322 229.682 26.966 256.385 47.6853C283.089 68.4047 317.802 116.303 332.385 165.193C338.483 185.637 343.656 234.493 342.181 257.713C336.804 342.321 302.733 390.818 251.042 393.844C217.812 395.788 196.929 384.254 176.661 345.643C160.695 315.225 149.28 303.239 118.446 284.509C74.0408 257.542 54.3328 231.527 46.6132 189.687Z" fill="url(#paint2_linear_1254_5576)"/>
<path fill-rule="evenodd" clip-rule="evenodd" d="M0 208.201C0 86.1048 82.0046 0 201.367 0C316.173 0 400 85.6492 400 208.201C400 329.841 314.806 413.667 196.811 413.667C82.0045 413.667 0 330.296 0 208.201ZM46.6132 189.687C34.7867 125.583 66.894 58.9426 119.372 28.4103C119.372 28.4103 135.592 18.2159 157.679 16.3297C192.78 13.3322 229.682 26.966 256.385 47.6853C283.089 68.4047 317.802 116.303 332.385 165.193C338.483 185.637 343.656 234.493 342.181 257.713C336.804 342.321 302.733 390.818 251.042 393.844C217.812 395.788 196.929 384.254 176.661 345.643C160.695 315.225 149.28 303.239 118.446 284.509C74.0408 257.542 54.3328 231.527 46.6132 189.687Z" fill="url(#paint3_linear_1254_5576)"/>
<defs>
<linearGradient id="paint0_linear_1254_5576" x1="-31.0251" y1="87.9043" x2="225.449" y2="352.652" gradientUnits="userSpaceOnUse">
<stop stop-color="#282564"/>
<stop offset="0.454798" stop-color="#2D2A68" stop-opacity="0.833333"/>
<stop offset="1" stop-color="#46447F" stop-opacity="0"/>
</linearGradient>
<linearGradient id="paint1_linear_1254_5576" x1="373.335" y1="46.5376" x2="240.961" y2="204.765" gradientUnits="userSpaceOnUse">
<stop stop-color="#932075"/>
<stop offset="1" stop-color="#CA67AC" stop-opacity="0"/>
</linearGradient>
<linearGradient id="paint2_linear_1254_5576" x1="10.3417" y1="425.043" x2="173.74" y2="222.346" gradientUnits="userSpaceOnUse">
<stop stop-color="#4BBAB3"/>
<stop offset="1" stop-color="#4BBAB3" stop-opacity="0"/>
</linearGradient>
<linearGradient id="paint3_linear_1254_5576" x1="319.558" y1="422.975" x2="142.715" y2="261.645" gradientUnits="userSpaceOnUse">
<stop stop-color="#F29081"/>
<stop offset="1" stop-color="#F29081" stop-opacity="0"/>
</linearGradient>
</defs>
</svg>
